HIERARCHY
ROOT Hips
{
	OFFSET 0.00000 0.00000 0.00000
	CHANNELS 6 Xposition Yposition Zposition Zrotation Yrotation Xrotation 
	JOINT LHipJoint
	{
		OFFSET 0 0 0
		CHANNELS 3 Zrotation Yrotation Xrotation
		JOINT LeftUpLeg
		{
			OFFSET 1.88772 -1.62769 0.85636
			CHANNELS 3 Zrotation Yrotation Xrotation
			JOINT LeftLeg
			{
				OFFSET 2.39836 -6.58946 0.00000
				CHANNELS 3 Zrotation Yrotation Xrotation
				JOINT LeftFoot
				{
					OFFSET 2.78523 -7.65237 0.00000
					CHANNELS 3 Zrotation Yrotation Xrotation
					JOINT LeftToeBase
					{
						OFFSET 0.19551 -0.53715 1.90694
						CHANNELS 3 Zrotation Yrotation Xrotation
						End Site
						{
							OFFSET 0.00000 -0.00000 0.99735
						}
					}
				}
			}
		}
	}
	JOINT RHipJoint
	{
		OFFSET 0 0 0
		CHANNELS 3 Zrotation Yrotation Xrotation
		JOINT RightUpLeg
		{
			OFFSET -1.74282 -1.62769 0.85636
			CHANNELS 3 Zrotation Yrotation Xrotation
			JOINT RightLeg
			{
				OFFSET -2.36062 -6.48575 0.00000
				CHANNELS 3 Zrotation Yrotation Xrotation
				JOINT RightFoot
				{
					OFFSET -2.76258 -7.59014 0.00000
					CHANNELS 3 Zrotation Yrotation Xrotation
					JOINT RightToeBase
					{
						OFFSET -0.19308 -0.53048 2.03952
						CHANNELS 3 Zrotation Yrotation Xrotation
						End Site
						{
							OFFSET -0.00000 -0.00000 1.06031
						}
					}
				}
			}
		}
	}
	JOINT LowerBack
	{
		OFFSET 0 0 0
		CHANNELS 3 Zrotation Yrotation Xrotation
		JOINT Spine
		{
			OFFSET -0.08299 2.03160 -0.30721
			CHANNELS 3 Zrotation Yrotation Xrotation
			JOINT Spine1
			{
				OFFSET -0.01030 2.00603 0.13891
				CHANNELS 3 Zrotation Yrotation Xrotation
				JOINT Neck
				{
					OFFSET 0 0 0
					CHANNELS 3 Zrotation Yrotation Xrotation
					JOINT Neck1
					{
						OFFSET 0.04282 1.69578 0.19991
						CHANNELS 3 Zrotation Yrotation Xrotation
						JOINT Head
						{
							OFFSET -0.08665 1.66622 -0.03785
							CHANNELS 3 Zrotation Yrotation Xrotation
							End Site
							{
								OFFSET -0.03699 1.83329 -0.04094
							}
						}
					}
				}
				JOINT LeftShoulder
				{
					OFFSET 0 0 0
					CHANNELS 3 Zrotation Yrotation Xrotation
					JOINT LeftArm
					{
						OFFSET 3.04219 1.50803 -0.05347
						CHANNELS 3 Zrotation Yrotation Xrotation
						JOINT LeftForeArm
						{
							OFFSET 5.79199 -0.00000 0.00000
							CHANNELS 3 Zrotation Yrotation Xrotation
							JOINT LeftHand
							{
								OFFSET 3.49908 -0.00000 0.00000
								CHANNELS 3 Zrotation Yrotation Xrotation
								JOINT LeftFingerBase
								{
									OFFSET 0 0 0
									CHANNELS 3 Zrotation Yrotation Xrotation
									JOINT LeftHandIndex1
									{
										OFFSET 0.59386 -0.00000 0.00000
										CHANNELS 3 Zrotation Yrotation Xrotation
										End Site
										{
											OFFSET 0.47879 -0.00000 0.00000
										}
									}
								}
								JOINT LThumb
								{
									OFFSET 0 0 0
									CHANNELS 3 Zrotation Yrotation Xrotation
									End Site
									{
										OFFSET 0.48610 -0.00000 0.48610
									}
								}
							}
						}
					}
				}
				JOINT RightShoulder
				{
					OFFSET 0 0 0
					CHANNELS 3 Zrotation Yrotation Xrotation
					JOINT RightArm
					{
						OFFSET -3.30316 1.18853 0.11175
						CHANNELS 3 Zrotation Yrotation Xrotation
						JOINT RightForeArm
						{
							OFFSET -5.73799 -0.00000 0.00000
							CHANNELS 3 Zrotation Yrotation Xrotation
							JOINT RightHand
							{
								OFFSET -3.57916 -0.00000 -0.00000
								CHANNELS 3 Zrotation Yrotation Xrotation
								JOINT RightFingerBase
								{
									OFFSET 0 0 0
									CHANNELS 3 Zrotation Yrotation Xrotation
									JOINT RightHandIndex1
									{
										OFFSET -0.61558 -0.00000 0.00000
										CHANNELS 3 Zrotation Yrotation Xrotation
										End Site
										{
											OFFSET -0.49629 -0.00000 0.00000
										}
									}
								}
								JOINT RThumb
								{
									OFFSET 0 0 0
									CHANNELS 3 Zrotation Yrotation Xrotation
									End Site
									{
										OFFSET -0.50387 -0.00000 0.50387
									}
								}
							}
						}
					}
				}
			}
		}
	}
}
MOTION
Frames: 10
Frame Time: 0.0104167
0.00 0.00 0.00 -6.2761 -36.2351 9.8140 0.0000 0.0000 0.0000 4.0100 -24.2512 -42.4165 6.2511 14.6674 45.9815 -0.6328 -15.3288 -1.1966 0.2225 -3.0365 -8.3803 0.0000 0.0000 0.0000 25.8175 -23.2816 -12.7023 -3.0644 -10.7986 31.6038 -2.6449 -12.6050 -37.1811 -0.3845 3.9818 -11.0256 -0.2766 2.8010 6.0276 0.6566 3.7603 -2.7612 0.4089 1.8790 -6.3201 0.2897 -8.0640 1.4089 4.2496 -11.1006 7.3184 1.1002 -5.4458 2.3225 0.0000 0.0000 0.0000 -79.2177 -35.6296 52.4101 149.3351 -41.4565 -108.1526 -0.0000 0.0000 -43.5103 19.3977 -26.5278 -8.9374 -7.1250 0.0000 -0.0000 -6.3265 2.2386 6.1123 0.0000 0.0000 0.0000 33.2978 49.3899 3.8559 -84.9655 59.9040 -55.6414 0.0000 0.0000 10.5585 -52.3580 -25.9853 29.5999 7.1250 -0.0000 -0.0000 -32.4857 -65.7879 17.0933
0.00 0.00 0.00 -3.4305 -38.5260 7.9658 0.0000 0.0000 0.0000 1.1070 -21.7486 -40.7120 5.8731 14.3043 44.4705 -0.6394 -15.7616 -1.9440 0.5383 -4.7010 -13.0577 0.0000 0.0000 0.0000 23.0189 -22.1193 -12.1894 -3.1296 -10.9019 31.9497 -2.7028 -11.4289 -36.7023 -0.2492 3.2120 -8.8695 -2.6316 4.1173 6.4407 -0.8712 5.1984 -3.4647 -0.1134 2.6518 -7.3996 3.1673 -8.0290 3.5943 2.0248 -10.9242 9.5929 0.0133 -5.3142 2.3749 0.0000 0.0000 0.0000 -75.3026 -28.4473 50.6809 149.7089 -41.1416 -108.3994 -0.0000 0.0000 -43.6005 18.9064 -26.0864 -8.5648 -7.1250 0.0000 -0.0000 -6.5790 2.7736 6.2951 0.0000 0.0000 0.0000 16.3173 65.6810 -16.2130 -25.3439 36.5534 -8.4939 0.0000 -0.0000 -13.1460 -23.4071 -65.2517 21.4611 7.1250 -0.0000 -0.0000 114.0212 77.3787 126.2988
0.00 0.00 0.00 -4.1388 -35.5266 9.7815 0.0000 0.0000 0.0000 3.4233 -24.9094 -40.7061 5.3779 13.7972 42.4310 -0.5702 -14.5301 -1.0521 0.2183 -3.0080 -8.3010 0.0000 0.0000 0.0000 25.7833 -21.0660 -10.5034 -2.4154 -9.6825 27.9546 -2.4367 -13.8199 -36.9678 -0.1566 2.5496 -7.0273 -4.2385 3.4876 3.7813 -1.4202 4.3003 -3.6257 0.4926 2.2677 -6.1011 4.0780 -6.4426 2.8060 3.1908 -8.9982 10.7219 0.1895 -4.2581 2.9213 0.0000 -0.0000 0.0000 -74.5391 -25.6737 50.9941 150.2821 -40.6503 -108.7746 -0.0000 0.0000 -48.1406 20.4725 -27.1796 -9.6778 -7.1250 0.0000 -0.0000 -5.7527 1.3795 5.6413 0.0000 -0.0000 0.0000 43.9689 52.3214 10.5271 -72.7845 58.8500 -45.1485 0.0000 -0.0000 -42.2230 -26.0570 -49.8643 20.4969 7.1250 -0.0000 -0.0000 44.8780 -80.2113 -37.5176
0.00 0.00 0.00 -4.8144 -33.9695 9.7974 0.0000 0.0000 0.0000 4.6095 -26.8064 -40.7657 5.4579 13.8816 42.7654 -0.5561 -14.3454 -1.0231 0.1798 -2.7311 -7.5311 0.0000 0.0000 0.0000 27.3102 -22.6534 -9.9696 -2.1636 -9.1989 26.4196 -2.2961 -15.9092 -37.8358 -0.1821 2.7482 -7.5786 -4.1855 2.7524 4.2783 -1.0281 3.3197 -3.5474 0.9441 1.7924 -6.2785 4.3942 -5.6761 2.8610 1.7592 -7.7948 9.9368 -0.2773 -3.7071 2.5647 -0.0000 -0.0000 0.0000 -74.6500 -25.6652 50.6762 150.3038 -40.6315 -108.7888 -0.0000 0.0000 -47.7681 20.9226 -26.9105 -9.8169 -7.1250 0.0000 -0.0000 -5.4538 1.5737 5.3264 -0.0000 -0.0000 0.0000 54.9942 47.1094 16.4181 -95.3358 59.8921 -64.6193 0.0000 -0.0000 -47.5187 -30.7384 -46.7920 23.4336 7.1250 -0.0000 -0.0000 25.2043 -80.2176 -20.7223
0.00 0.00 0.00 -4.8751 -33.9645 9.4816 0.0000 0.0000 0.0000 4.8048 -27.6813 -39.8629 5.3766 13.7958 42.4255 -0.5172 -13.8950 -1.0999 0.0859 -1.8903 -5.2026 0.0000 0.0000 0.0000 27.6232 -23.3176 -9.3845 -2.0126 -8.8922 25.4588 -2.2154 -17.1504 -38.4346 -0.3906 4.0133 -11.1140 -4.1968 2.3723 5.0336 -1.2673 2.7522 -3.5883 0.7258 1.5112 -6.7157 4.7436 -4.9239 2.2139 1.8134 -6.8245 9.7508 -0.3253 -3.2097 2.6190 -0.0000 -0.0000 0.0000 -74.1014 -25.8513 49.8167 150.0285 -40.8689 -108.6090 -0.0000 0.0000 -47.5066 19.7118 -25.5651 -8.7891 -7.1250 0.0000 -0.0000 -6.0412 3.1719 5.7301 -0.0000 -0.0000 0.0000 64.7159 41.8237 22.1518 -111.7585 58.1333 -78.7253 0.0000 -0.0000 -40.6952 -26.1597 -46.2645 19.5398 7.1250 -0.0000 -0.0000 29.9480 -77.8921 -23.3497
0.00 0.00 0.00 -3.1433 -38.0402 9.0568 0.0000 0.0000 0.0000 3.3072 -25.7673 -38.1529 5.0476 13.4372 41.0278 -0.3735 -12.5122 -2.2368 0.0345 -1.1994 -3.2976 0.0000 0.0000 0.0000 25.1055 -19.3670 -8.2240 -2.0408 -8.9505 25.6407 -2.9134 -13.4690 -39.0898 -0.0092 0.6187 -1.7003 -5.9580 2.6461 5.1817 -2.1712 2.8782 -3.9575 0.7209 1.6392 -7.2610 5.4154 -3.0413 1.2502 2.1687 -4.3460 8.5325 -0.2996 -1.9671 2.4136 0.0000 0.0000 0.0000 -72.0041 -25.8715 48.0138 150.3012 -40.6338 -108.7871 -0.0000 0.0000 -48.4712 16.2456 -25.0308 -7.0285 -7.1250 0.0000 -0.0000 -8.1058 4.2637 7.5582 0.0000 0.0000 0.0000 74.6806 32.7859 31.2728 -131.2461 52.4804 -94.8176 0.0000 -0.0000 -40.2228 -22.5769 -41.7701 15.4813 7.1250 -0.0000 -0.0000 23.5439 -72.8593 -15.7970
0.00 0.00 0.00 -3.4894 -53.2471 12.9240 0.0000 0.0000 0.0000 -0.5713 -8.9136 -45.8351 4.4430 12.7276 38.3573 0.1502 6.8975 -12.8259 0.3550 -3.8281 -10.5935 0.0000 0.0000 0.0000 19.9780 -8.6807 4.4017 -0.3927 -4.0236 11.1432 -1.0320 -18.9274 -33.7689 -0.2895 3.4603 -9.5630 -3.4225 3.0041 3.5613 -1.7510 3.6749 -4.0736 -0.2450 1.9167 -6.3406 6.1168 3.3618 -1.3911 -1.9763 4.3829 3.1800 -1.5852 2.2296 1.4247 -0.0000 0.0000 0.0000 -70.6779 -22.7308 37.4250 152.5848 -38.5723 -110.2431 -0.0000 0.0000 -49.5283 21.9727 -25.3576 -9.8036 -7.1250 0.0000 -0.0000 -4.6466 2.9877 4.4128 -0.0000 0.0000 0.0000 80.0027 28.4462 49.8823 -146.2369 43.9084 -106.0515 0.0000 -0.0000 -32.5011 -11.8425 -23.6203 4.8025 7.1250 -0.0000 -0.0000 17.9793 -53.1498 -3.6993
0.00 0.00 0.00 -5.1794 -52.7171 15.2512 0.0000 0.0000 0.0000 -3.5149 -5.4564 -50.7150 7.5617 15.7872 50.9681 0.3546 3.8654 -13.3439 0.3614 -3.8620 -10.6887 0.0000 0.0000 0.0000 16.9699 -6.7905 17.5257 0.0000 -0.0000 0.0000 2.0970 -28.0500 -25.5743 -1.9825 8.8296 -25.2636 -2.4533 2.8471 2.6442 -1.4293 3.5423 -5.2304 -0.4294 1.8197 -6.9943 6.7535 4.0162 -2.9665 -2.0195 5.1289 3.2531 -1.6661 2.6041 1.7827 -0.0000 -0.0000 0.0000 -66.3444 -6.0845 39.5849 148.2931 -42.3123 -107.4569 -0.0000 0.0000 -42.7344 8.7916 -23.8829 -3.5830 -7.1250 0.0000 -0.0000 -12.6143 6.3257 11.4352 -0.0000 -0.0000 0.0000 72.0155 14.5030 55.8751 -148.3022 42.3049 -107.4631 0.0000 -0.0000 -31.9107 -6.4252 -23.7961 2.6016 7.1250 -0.0000 -0.0000 23.2779 -52.3730 -4.4198
0.00 0.00 0.00 -0.8716 -47.9074 11.1496 0.0000 0.0000 0.0000 -10.0430 -8.2064 -47.5611 8.3890 16.3981 53.9521 0.8439 0.0971 -17.4007 0.2991 -3.5165 -9.7203 0.0000 0.0000 0.0000 12.1764 -7.8851 15.8629 -0.3469 -3.7846 10.4714 3.4330 -31.0145 -17.6890 -0.6194 5.0366 -14.0129 -3.9745 2.1076 2.0423 -1.3459 2.5076 -4.8479 0.6322 1.3822 -6.3027 6.6183 3.3616 -4.3233 -2.0433 4.1669 4.2112 -1.6612 2.1306 2.2941 0.0000 -0.0000 0.0000 -66.8319 5.2920 47.4877 136.7098 -49.9028 -99.0775 -0.0000 0.0000 -36.4157 17.1718 -24.7864 -7.3815 -7.1250 0.0000 -0.0000 -7.5215 4.3739 6.9876 0.0000 -0.0000 0.0000 66.9726 -0.8873 58.8653 -143.0707 46.1416 -103.8110 0.0000 -0.0000 -29.9298 -3.8967 -27.1810 1.7822 7.1250 -0.0000 -0.0000 27.8165 -54.9577 -7.2156
0.00 0.00 0.00 1.9965 -45.8549 7.9512 0.0000 0.0000 0.0000 -15.1096 -7.5444 -43.3252 8.1624 16.2374 53.1454 1.0599 -2.3389 -18.8169 0.2246 -3.0508 -8.4201 0.0000 0.0000 0.0000 9.5547 -5.5670 10.0184 -2.0506 -8.9708 25.7039 3.3884 -30.5392 -14.0333 -0.0019 -0.2826 0.7765 -5.1043 2.1966 2.8880 -1.6969 2.5021 -4.6120 0.8663 1.4250 -6.5838 7.0285 2.5645 -3.8946 -2.6990 3.1416 4.0061 -1.9935 1.6097 2.1268 0.0000 0.0000 0.0000 -66.5858 10.4080 51.8462 122.1378 -55.7128 -87.4316 -0.0000 0.0000 -31.9853 16.9114 -22.2053 -6.5548 -7.1250 0.0000 -0.0000 -7.5048 7.0385 6.5869 0.0000 0.0000 0.0000 66.4196 -11.0652 59.6777 -134.5806 50.9723 -97.4359 0.0000 -0.0000 -27.7931 -8.8167 -30.6124 4.5161 7.1250 -0.0000 -0.0000 25.5688 -59.0172 -9.1310
